<svg xmlns="http://www.w3.org/2000/svg" width="220" height="125.913" viewBox="0 0 220 125.913"><g transform="translate(-959.456 -173.287)"><g transform="translate(959.456 173.287)"><path d="M973.523,194.686l.137-21.308,10.655.069-.02,2.86-2.8-.017-.1,15.949A5.406,5.406,0,0,1,976,197.563l-.365,0-.1,15.587,2.86.017-.017,2.862-13.516-.085.018-2.862,2.86.018.1-15.585-.365,0a5.351,5.351,0,0,1-5.261-5.392l.1-15.949-2.862-.018.02-2.862,10.654.069-.137,21.308Z" transform="translate(-959.456 -173.287)" fill="#fff"/><path d="M977.512,210.651l.2-31.962a5.378,5.378,0,0,1,5.329-5.263l8.889.056a5.392,5.392,0,0,1,5.322,5.331l-.2,31.962a5.405,5.405,0,0,1-5.391,5.323l-8.889-.056A5.393,5.393,0,0,1,977.512,210.651Zm8.01-34.349-.234,36.894,3.9.024.234-36.893Z" transform="translate(-950.025 -173.214)" fill="#fff"/><path d="M1003.343,216.185l-10.654-.068.018-2.862,2.8.018.234-36.893-2.8-.018.02-2.862,10.655.068-.117,18.447,3.92-3.873.094-14.55,10.654.067-.02,2.862-2.862-.017-.052,8.217-9.558,9.437,9.5.061-.122,19.178,2.862.018-.018,2.862-10.655-.069.122-19.178-3.9-.024Z" transform="translate(-942.099 -173.176)" fill="#fff"/><path d="M1011.351,210.866l.2-31.962a5.38,5.38,0,0,1,5.331-5.263l8.889.056a5.392,5.392,0,0,1,5.323,5.331l-.2,31.962a5.4,5.4,0,0,1-5.392,5.323l-8.887-.056A5.392,5.392,0,0,1,1011.351,210.866Zm8.01-34.347-.234,36.894,3.9.024.234-36.893Z" transform="translate(-932.352 -173.102)" fill="#fff"/><path d="M1026.546,213.471l2.8.018.234-36.894-2.8-.017.02-2.862,10.654.067-.108,17.047,3.894.026.11-17.048,10.655.068-.02,2.862-2.862-.02-.234,36.894,2.862.02-.018,2.86-10.654-.069.145-22.708-3.9-.026-.145,22.71-10.655-.067Z" transform="translate(-924.425 -173.063)" fill="#fff"/><path d="M1069.711,213.728l-.018,2.862-10.654-.068.108-17.047-3.9-.026-.11,17.047-10.654-.067.018-2.862,2.8.018.219-34.459a5.393,5.393,0,0,1,5.392-5.263l8.889.056a5.379,5.379,0,0,1,5.263,5.33l-.219,34.459Zm-10.547-17.115.126-19.846-3.9-.026-.126,19.846Z" transform="translate(-915.045 -172.986)" fill="#fff"/><path d="M1076.995,179.454l-3.92,3.871-.213,33.3-10.654-.067.018-2.862,2.8.017.234-36.893-2.8-.018.02-2.862,10.654.069-.035,5.3,5.331-5.263,6.392.04-.033,5.3,5.392-5.263,6.391.04-.254,39.755,2.8.018-.018,2.862-10.653-.067.237-37.2-3.921,3.871-.212,33.3-7.793-.049Z" transform="translate(-905.79 -172.945)" fill="#fff"/><path d="M1112.629,214l-.018,2.862-10.655-.069.108-17.047-3.9-.026-.109,17.048-10.654-.067.018-2.862,2.8.017.219-34.457a5.392,5.392,0,0,1,5.392-5.263l8.889.056a5.379,5.379,0,0,1,5.263,5.33l-.219,34.459Zm-10.546-17.115.126-19.846-3.9-.026-.126,19.846Z" transform="translate(-892.629 -172.843)" fill="#fff"/></g><g transform="translate(1039.559 273.623)"><path d="M1012.076,247.123v-.84l4.02-4.055v-1.9h2.375v5.116h2.557v1.681h-2.557v15.346h2.557v1.717h-4.055a3.244,3.244,0,0,1-3.215-3.215V250.338l3.215-3.215Z" transform="translate(-1012.076 -238.609)" fill="#fff"/><path d="M1019.349,259.216v-12.35a3.2,3.2,0,0,1,3.178-3.179h5.333a3.213,3.213,0,0,1,3.217,3.179v12.35a3.244,3.244,0,0,1-3.217,3.215h-5.333A3.236,3.236,0,0,1,1019.349,259.216Zm4.677-13.848v15.346h2.338V245.368Z" transform="translate(-1008.277 -236.853)" fill="#fff"/><path d="M1041.076,261.378v-9.39h-1.059V250.27h5.773V259a5.809,5.809,0,0,1-5.773,5.773h-5.955v-22.4a3.229,3.229,0,0,1,3.177-3.18h7.053v5.116h-1.719v-3.4h-3.835v22.143A1.966,1.966,0,0,0,1041.076,261.378Z" transform="translate(-1000.593 -239.198)" fill="#fff"/><path d="M1043.3,261.56V242.378a3.229,3.229,0,0,1,3.179-3.18h5.334a3.237,3.237,0,0,1,3.215,3.18V261.56a3.243,3.243,0,0,1-3.215,3.215h-5.334A3.236,3.236,0,0,1,1043.3,261.56Zm4.677-20.645v22.143h2.338V240.915Z" transform="translate(-995.767 -239.198)" fill="#fff"/></g><g transform="translate(1054.386 235.264)"><path d="M1036.462,229.11l1.8-1.8c1.84,1.355,4.1,1.5,5.372.228a2.2,2.2,0,0,0,.166-.186l.009.011,6.651-6.651-1.4-1.4-4.2,4.2a.99.99,0,1,1-1.4-1.4l4.2-4.2-1.4-1.4-4.2,4.2a.99.99,0,1,1-1.4-1.4l4.2-4.2-.9-.9a.7.7,0,0,0-.991,0l-6.155,6.155.009.009a2.039,2.039,0,0,0-.184.166c-1.271,1.27-1.126,3.532.227,5.372l-11.6,11.6,1.4,1.4,8.4-8.4,9.8,9.8,1.4-1.4Z" transform="translate(-1020.017 -214)" fill="#fff"/><path d="M1023.209,222.2l7.351,7.35,4.2-4.2L1023.909,214.5S1019.709,218.7,1023.209,222.2Z" transform="translate(-1021.816 -213.739)" fill="#fff"/></g></g></svg>